<mxfile host="app.diagrams.net" modified="2023-12-30T03:59:44.190Z" agent="Mozilla/5.0 (Windows NT 10.0; Win64; x64; rv:121.0) Gecko/20100101 Firefox/121.0" etag="ZG2XXf_hsJtnqKExQjgl" version="22.1.16" type="github">
  <diagram name="Page-1" id="f3MLHyesFSod3ZTN5zOw">
    <mxGraphModel dx="880" dy="462" grid="1" gridSize="10" guides="1" tooltips="1" connect="1" arrows="1" fold="1" page="1" pageScale="1" pageWidth="850" pageHeight="1100" math="0" shadow="0">
      <root>
        <mxCell id="0" />
        <mxCell id="1" parent="0" />
        <mxCell id="yyRl0xBmcdnjLJMx300J-84" style="edgeStyle=orthogonalEdgeStyle;rounded=0;orthogonalLoop=1;jettySize=auto;html=1;exitX=0.5;exitY=1;exitDx=0;exitDy=0;entryX=0.5;entryY=0;entryDx=0;entryDy=0;" parent="1" source="yyRl0xBmcdnjLJMx300J-1" target="yyRl0xBmcdnjLJMx300J-2" edge="1">
          <mxGeometry relative="1" as="geometry" />
        </mxCell>
        <mxCell id="yyRl0xBmcdnjLJMx300J-1" value="" style="ellipse;whiteSpace=wrap;html=1;aspect=fixed;" parent="1" vertex="1">
          <mxGeometry x="115" y="40" width="50" height="50" as="geometry" />
        </mxCell>
        <mxCell id="yyRl0xBmcdnjLJMx300J-57" style="edgeStyle=orthogonalEdgeStyle;rounded=0;orthogonalLoop=1;jettySize=auto;html=1;exitX=1;exitY=0.5;exitDx=0;exitDy=0;entryX=0;entryY=0.5;entryDx=0;entryDy=0;" parent="1" edge="1">
          <mxGeometry relative="1" as="geometry">
            <mxPoint x="231" y="160" as="sourcePoint" />
            <mxPoint x="321" y="160" as="targetPoint" />
          </mxGeometry>
        </mxCell>
        <mxCell id="yyRl0xBmcdnjLJMx300J-91" style="edgeStyle=orthogonalEdgeStyle;rounded=0;orthogonalLoop=1;jettySize=auto;html=1;exitX=0.5;exitY=1;exitDx=0;exitDy=0;entryX=0.5;entryY=0;entryDx=0;entryDy=0;" parent="1" source="yyRl0xBmcdnjLJMx300J-2" target="yyRl0xBmcdnjLJMx300J-81" edge="1">
          <mxGeometry relative="1" as="geometry" />
        </mxCell>
        <mxCell id="yyRl0xBmcdnjLJMx300J-2" value="" style="rhombus;whiteSpace=wrap;html=1;" parent="1" vertex="1">
          <mxGeometry x="47.5" y="120" width="185" height="80" as="geometry" />
        </mxCell>
        <mxCell id="yyRl0xBmcdnjLJMx300J-19" value="" style="edgeStyle=orthogonalEdgeStyle;rounded=0;orthogonalLoop=1;jettySize=auto;html=1;" parent="1" edge="1">
          <mxGeometry relative="1" as="geometry">
            <mxPoint x="718" y="160" as="sourcePoint" />
            <mxPoint x="138" y="590" as="targetPoint" />
            <Array as="points">
              <mxPoint x="778" y="160" />
              <mxPoint x="778" y="590" />
            </Array>
          </mxGeometry>
        </mxCell>
        <mxCell id="yyRl0xBmcdnjLJMx300J-88" style="edgeStyle=orthogonalEdgeStyle;rounded=0;orthogonalLoop=1;jettySize=auto;html=1;exitX=0.5;exitY=1;exitDx=0;exitDy=0;" parent="1" source="yyRl0xBmcdnjLJMx300J-30" edge="1">
          <mxGeometry relative="1" as="geometry">
            <mxPoint x="365.66666666666674" y="590" as="targetPoint" />
          </mxGeometry>
        </mxCell>
        <mxCell id="yyRl0xBmcdnjLJMx300J-30" value="" style="shape=parallelogram;perimeter=parallelogramPerimeter;whiteSpace=wrap;html=1;fixedSize=1;" parent="1" vertex="1">
          <mxGeometry x="280" y="430" width="170" height="70" as="geometry" />
        </mxCell>
        <mxCell id="yyRl0xBmcdnjLJMx300J-54" style="edgeStyle=orthogonalEdgeStyle;rounded=0;orthogonalLoop=1;jettySize=auto;html=1;exitX=1;exitY=0.5;exitDx=0;exitDy=0;" parent="1" source="yyRl0xBmcdnjLJMx300J-53" edge="1">
          <mxGeometry relative="1" as="geometry">
            <mxPoint x="580" y="160" as="targetPoint" />
          </mxGeometry>
        </mxCell>
        <mxCell id="yyRl0xBmcdnjLJMx300J-76" style="edgeStyle=orthogonalEdgeStyle;rounded=0;orthogonalLoop=1;jettySize=auto;html=1;exitX=0.5;exitY=1;exitDx=0;exitDy=0;entryX=0.5;entryY=0;entryDx=0;entryDy=0;" parent="1" source="yyRl0xBmcdnjLJMx300J-53" target="yyRl0xBmcdnjLJMx300J-75" edge="1">
          <mxGeometry relative="1" as="geometry" />
        </mxCell>
        <mxCell id="yyRl0xBmcdnjLJMx300J-53" value="" style="rhombus;whiteSpace=wrap;html=1;" parent="1" vertex="1">
          <mxGeometry x="320" y="120" width="190" height="80" as="geometry" />
        </mxCell>
        <mxCell id="yyRl0xBmcdnjLJMx300J-89" style="edgeStyle=orthogonalEdgeStyle;rounded=0;orthogonalLoop=1;jettySize=auto;html=1;exitX=1;exitY=0.5;exitDx=0;exitDy=0;entryX=0;entryY=0.5;entryDx=0;entryDy=0;" parent="1" source="yyRl0xBmcdnjLJMx300J-75" target="yyRl0xBmcdnjLJMx300J-80" edge="1">
          <mxGeometry relative="1" as="geometry" />
        </mxCell>
        <mxCell id="yyRl0xBmcdnjLJMx300J-75" value="" style="rhombus;whiteSpace=wrap;html=1;" parent="1" vertex="1">
          <mxGeometry x="320" y="290" width="190" height="80" as="geometry" />
        </mxCell>
        <mxCell id="yyRl0xBmcdnjLJMx300J-79" value="" style="shape=parallelogram;perimeter=parallelogramPerimeter;whiteSpace=wrap;html=1;fixedSize=1;" parent="1" vertex="1">
          <mxGeometry x="570" y="125" width="170" height="70" as="geometry" />
        </mxCell>
        <mxCell id="yyRl0xBmcdnjLJMx300J-90" style="edgeStyle=orthogonalEdgeStyle;rounded=0;orthogonalLoop=1;jettySize=auto;html=1;exitX=1;exitY=0.5;exitDx=0;exitDy=0;" parent="1" source="yyRl0xBmcdnjLJMx300J-80" edge="1">
          <mxGeometry relative="1" as="geometry">
            <mxPoint x="780" y="330" as="targetPoint" />
          </mxGeometry>
        </mxCell>
        <mxCell id="yyRl0xBmcdnjLJMx300J-80" value="" style="shape=parallelogram;perimeter=parallelogramPerimeter;whiteSpace=wrap;html=1;fixedSize=1;" parent="1" vertex="1">
          <mxGeometry x="560" y="295" width="170" height="70" as="geometry" />
        </mxCell>
        <mxCell id="yyRl0xBmcdnjLJMx300J-87" style="edgeStyle=orthogonalEdgeStyle;rounded=0;orthogonalLoop=1;jettySize=auto;html=1;exitX=1;exitY=0.5;exitDx=0;exitDy=0;entryX=0;entryY=0.5;entryDx=0;entryDy=0;" parent="1" source="yyRl0xBmcdnjLJMx300J-81" target="yyRl0xBmcdnjLJMx300J-30" edge="1">
          <mxGeometry relative="1" as="geometry" />
        </mxCell>
        <mxCell id="yyRl0xBmcdnjLJMx300J-92" style="edgeStyle=orthogonalEdgeStyle;rounded=0;orthogonalLoop=1;jettySize=auto;html=1;exitX=0.5;exitY=1;exitDx=0;exitDy=0;entryX=0.5;entryY=0;entryDx=0;entryDy=0;" parent="1" source="yyRl0xBmcdnjLJMx300J-81" target="yyRl0xBmcdnjLJMx300J-86" edge="1">
          <mxGeometry relative="1" as="geometry" />
        </mxCell>
        <mxCell id="yyRl0xBmcdnjLJMx300J-81" value="" style="rhombus;whiteSpace=wrap;html=1;" parent="1" vertex="1">
          <mxGeometry x="45" y="425" width="190" height="80" as="geometry" />
        </mxCell>
        <mxCell id="yyRl0xBmcdnjLJMx300J-86" value="" style="ellipse;whiteSpace=wrap;html=1;aspect=fixed;" parent="1" vertex="1">
          <mxGeometry x="115" y="620" width="50" height="50" as="geometry" />
        </mxCell>
      </root>
    </mxGraphModel>
  </diagram>
</mxfile>
